<?xml version="1.0" encoding="utf-8"?>
<!-- Generator: Adobe Illustrator 27.7.0, SVG Export Plug-In . SVG Version: 6.00 Build 0)  -->
<svg version="1.1" id="Layer_1" xmlns="http://www.w3.org/2000/svg" xmlns:xlink="http://www.w3.org/1999/xlink" x="0px" y="0px"
	 viewBox="0 0 1176.6 567" style="enable-background:new 0 0 1176.6 567;" xml:space="preserve">
<style type="text/css">
	.st0{fill:#FF5A50;}
	.st1{fill:#2B3457;}
</style>
<path class="st0" d="M494.1,257.5c-64.7,16.1-118.9,78.6-118.9,139c0,22.3,14.3,54.8,34.8,77.7c18.4,20.6,40.8,37.8,57.8,49.4
	c14.8,10.1,34.9,7.5,46.6-6.1c17-19.7,41.6-50.2,62-83.2c20.5-33.1,36.6-75,36.6-97.1C613.1,276.7,558.8,241.4,494.1,257.5z
	 M495.5,410.7c-28.1,7.1-50.8-8.6-50.8-34.8c0-26.2,22.8-53.1,50.8-60.2s50.8,8.6,50.8,34.8C546.4,376.7,523.6,403.6,495.5,410.7z"
	/>
<g>
	<path class="st1" d="M31,322.1v-94.2l-5.5,1.4c-12.3,3.1-20.8-2.5-20.8-14.8c0-12.7,8.8-21.9,20.8-24.9l5.5-1.4v-4.8
		c0-37.7,23.5-62.6,69.5-74.1c3.9-1,8.2-1.8,12.3-2.4c16.5-2.6,23.4,2.6,21.9,14.6c-1.6,12.5-7,19-17.1,21.3
		c-2.8,0.7-4.9,1.1-7.4,1.8C96.4,148,88.8,155.9,88.8,169v4.7l16.9-4.2c16.1-4,24.8,0.7,24.8,13.5c0,12.9-8.7,22.1-24.8,26.1
		l-16.9,4.2v94.2c0,15-8.7,25.3-24.8,29.3l-8.3,2.1C39.7,343,31,337.1,31,322.1z"/>
	<path class="st1" d="M151.9,291.9V181.3c0-15,8.7-25.3,24.6-29.3l7.8-2c16-4,24.6,2,24.6,16.9v110.6c0,15-8.7,25.3-24.6,29.3
		l-7.8,2C160.6,312.8,151.9,306.8,151.9,291.9z"/>
	<path class="st1" d="M395.1,166.6v64.5c0,15-8.7,25.3-24.8,29.3l-7.6,1.9c-16,4-24.8-1.9-24.8-16.9v-59.2c0-23-8.5-31-27.1-26.4
		c-19.6,4.9-26.9,17.9-26.9,41v58.1c0,15-8.7,25.3-24.8,29.3l-7.6,1.9c-16.1,4-24.8-1.9-24.8-16.9V162.6c0-15,8.7-25.3,24.8-29.3
		l7.6-1.9c16-4,24.7,1.9,24.8,15.6c7.6-15.9,26.5-30.3,48.7-35.9C376.5,100.1,395.1,117.2,395.1,166.6z"/>
	<path class="st1" d="M410,172.1c0-51.2,27.6-87.3,69.7-97.8c20.4-5.1,41.8-0.9,49.4,13.8v-52c0-15,8.7-25.3,24.8-29.3l7.6-1.9
		c16-4,24.8,1.9,24.8,16.9V183c0,15-8.7,25.3-24.8,29.3l-7.6,1.9c-15.4,3.9-24.8-0.4-24.8-11.5v-5.2c-7.6,17.9-29,32.6-49.3,37.6
		C437.9,245.7,410,223.1,410,172.1z M530.9,141.7c0-23.2-12.7-34.7-32-29.9c-19,4.7-32,22.8-32,45.9c0,23.3,12.9,34.9,32.2,30.1
		C518.3,183,530.9,165.1,530.9,141.7z"/>
	<path class="st1" d="M692,182.2c-41.9,10.5-69.8-12.1-69.8-63.2c0-51.2,27.6-87.3,69.7-97.8c20.4-5.1,41.7-0.9,49.4,13.8l-0.1-3
		c-0.3-14.2,9.2-23.4,24.8-27.3l7.6-1.9c16-4,24.8,1.9,24.8,16.9V130c0,15-8.7,25.3-24.8,29.3l-7.6,1.9
		c-15.4,3.9-25.1-0.3-24.8-14.1l0.1-2.6C733.7,162.5,712.3,177.1,692,182.2L692,182.2z M743.2,88.6c0-23.2-12.8-34.7-32-29.9
		c-19,4.7-32,22.8-32,45.9c0,23.3,12.9,34.9,32.2,30.1C730.5,129.9,743.2,112,743.2,88.6z"/>
</g>
<g>
	<path class="st1" d="M359.1,381.2V459c0,18.5-10.8,31.3-30.7,36.3l-9.4,2.3c-19.9,5-30.7-2.4-30.7-20.9v-71.3
		c0-31.9-7.8-41.2-29.9-35.7c-21.9,5.5-30.6,19.2-30.6,48.3v73.8c0,18.5-10.8,31.3-30.7,36.3l-9.4,2.3c-19.9,5-30.7-2.4-30.7-20.9
		v-71.2c0-32.3-7.4-41.3-29.2-35.8c-22.1,5.5-30.6,19.9-30.6,51.7v70.3c0,18.5-10.8,31.3-30.7,36.3l-9.4,2.3
		c-19.9,5-30.7-2.4-30.7-20.9v-137c0-18.5,10.8-31.3,30.7-36.3l9.4-2.3c19.4-4.8,30.1,0.9,30.6,17c8.7-18.7,30.3-34.6,57.6-41.4
		c32.4-8.1,50-2.4,61.8,20.7c9.6-18,30.5-43.9,69.4-53.6C337.7,296.4,359.1,316.4,359.1,381.2z"/>
	<path class="st1" d="M663.8,389.2l-59.9-123.7c-8.5-17.5,1.5-33.3,24.1-38.9l12.1-3c17.9-4.5,29.3,0.3,34.6,15.1l34.9,85.8
		L744,221.2c5.8-17.3,16.9-27.9,34.8-32.3l12.5-3.1c22.8-5.7,32.5,5.4,24,27.1l-60.2,153.5c-6.5,16.7-17.7,26.8-35.1,31.2l-20.8,5.2
		C681.9,407.1,670.4,402.8,663.8,389.2z"/>
	<path class="st1" d="M924.8,348.7c-66.5,16.6-109.9-11.1-109.9-72.1c0-59.7,44.2-110.6,108.4-126.6c60.6-15.2,99.4,6.5,104.5,58.6
		c1.8,18.7-8.6,30.7-30.7,36.3l-111.5,27.9c0.5,25.4,16.8,36.7,43.7,30c14.8-3.7,25.4-10.4,35.6-20.3c10.4-10,16.3-15.3,31.5-15.8
		l5.6-0.2c20.7-0.6,23.6,9.6,9.7,28.5C994.3,318.9,964.4,338.9,924.8,348.7L924.8,348.7z M925.3,191.3
		c-21.2,5.3-36.8,21.5-38.8,43.5l77.1-19.3C962.1,195.2,947,185.8,925.3,191.3z"/>
	<path class="st1" d="M1174.6,116.8l-0.6,5c-2,17.9-12.9,25.6-31.1,34.1c-20.8,9.7-32.3,27.2-32.3,57.2v58.1
		c0,18.5-10.8,31.3-30.7,36.3l-9.4,2.3c-19.9,5-30.7-2.4-30.7-20.9v-137c0-18.5,10.8-31.3,30.7-36.3l9.4-2.3
		c19.9-5,30.7,0.3,30.7,17.9c5.6-14.4,18.7-31.8,41.8-37.6C1169.9,89.3,1176.8,96.2,1174.6,116.8z"/>
</g>
<g>
	<path class="st1" d="M562.6,524.1c0-7.4,5.8-12.8,14-14.8c7.5-1.9,14,0.4,14,7.8c0,7.5-6.5,12.9-14,14.8
		C568.4,534,562.6,531.7,562.6,524.1z"/>
	<path class="st1" d="M601,490.7c0-21.2,16.1-39.2,37.6-44.6c16.6-4.1,28.1-1.1,32.8,7.7c2.9,5.2,0.6,10.2-6.6,13l-1.7,0.6
		c-5.8,2.2-8.1,1.3-11.6-1.3c-2.9-2.2-6.8-3-11.7-1.7c-8.4,2.1-14,10-14,20.1c0,10,5.6,15.2,14,13c4.8-1.2,8.5-4,11.6-7.5
		c3.8-4.2,5.7-6.4,11.5-7.1l1.5-0.2c7.3-0.9,9.6,3,6.9,9.5c-4.6,11.2-16.4,20.2-32.9,24.3C617.3,521.9,601,512.1,601,490.7z"/>
	<path class="st1" d="M682.1,470.5c0-24.7,19.3-40,38.9-44.9c19.7-4.9,38.8,0.8,38.8,25.5c0,25-19.1,40.1-38.9,45
		C701.3,500.9,682.1,495.4,682.1,470.5z M735,457.2c0-10.6-5.9-15.1-14-13.1c-8,2-14,9.5-14,20.1c0,10.8,6,15.2,14.1,13.2
		C729.1,475.3,735,467.9,735,457.2z"/>
	<path class="st1" d="M890.7,415v27.5c0,6.6-3.8,11.1-10.8,12.8l-3.3,0.8c-7,1.8-10.8-0.8-10.8-7.4v-25.2c0-11.3-2.8-14.6-10.6-12.6
		c-7.8,1.9-10.8,6.8-10.8,17.1v26.1c0,6.6-3.8,11.1-10.8,12.8l-3.3,0.8c-7,1.8-10.8-0.8-10.8-7.4v-25.2c0-11.4-2.6-14.6-10.3-12.7
		c-7.8,1.9-10.8,7-10.8,18.3v24.9c0,6.6-3.8,11.1-10.8,12.8l-3.3,0.8c-7,1.8-10.8-0.8-10.8-7.4v-48.4c0-6.6,3.8-11.1,10.8-12.8
		l3.3-0.8c6.9-1.7,10.7,0.3,10.8,6c3.1-6.6,10.7-12.2,20.4-14.6c11.5-2.9,17.7-0.8,21.8,7.3c3.4-6.4,10.8-15.5,24.5-18.9
		C883.1,385,890.7,392.1,890.7,415z"/>
	<path class="st1" d="M902.8,439.1c0-7.4,5.8-12.8,14-14.8c7.5-1.9,14,0.4,14,7.8c0,7.5-6.5,12.9-14,14.8
		C908.6,448.9,902.8,446.6,902.8,439.1z"/>
	<path class="st1" d="M971.8,433.3c-18.3,4.6-30.6-5.3-30.6-27.6c0-22.4,12.1-38.2,30.5-42.8c8.9-2.2,18.2-0.4,21.6,6v-1.3
		c-0.1-6.2,4-10.2,10.9-11.9l3.3-0.8c7-1.8,10.8,0.8,10.8,7.4v48.3c0,6.6-3.8,11.1-10.8,12.8l-3.3,0.8c-6.8,1.7-11-0.1-10.9-6.2
		v-1.1C990.1,424.7,980.7,431.1,971.8,433.3L971.8,433.3z M994.2,392.4c0-10.1-5.6-15.2-14-13.1c-8.3,2.1-14,10-14,20.1
		c0,10.2,5.6,15.3,14.1,13.2C988.7,410.4,994.2,402.6,994.2,392.4z"/>
	<path class="st1" d="M1096.3,332.7c7-1.8,10.8,0.8,10.8,7.4v48.4c0,6.6-3.8,11.1-10.8,12.8l-3.3,0.8c-7,1.7-10.8-0.8-10.8-6.8
		c-3.3,6.9-11.6,13.2-21.3,15.7c-19.2,4.8-27.3-2.6-27.3-24.2v-28.2c0-6.6,3.8-11.1,10.8-12.8l3.3-0.8c7-1.8,10.8,0.8,10.8,7.4v25.9
		c0,10.1,3.7,13.6,11.9,11.5c8.6-2.1,11.8-7.8,11.8-17.9v-25.4c0-6.6,3.8-11.1,10.8-12.8L1096.3,332.7L1096.3,332.7z"/>
</g>
<path class="st1" d="M151.1,112.2c0-17,13.3-29.2,31.9-33.8c16.9-4.2,31.9,0.9,31.9,17.9c0,17.2-14.9,29.6-31.9,33.8
	C164.4,134.8,151.1,129.4,151.1,112.2z"/>
</svg>
